<?xml version="1.0" encoding="utf-8"?>
<svg viewBox="56.074 173.026 85.054 115.676" xmlns="http://www.w3.org/2000/svg" xmlns:bx="https://boxy-svg.com">
  <defs>
    <style bx:fonts="Roboto Mono">@import url(https://fonts.googleapis.com/css2?family=Roboto+Mono%3Aital%2Cwght%400%2C100..700%3B1%2C100..700&amp;display=swap);</style>
  </defs>
  <path d="M 56.371 173.147 H 141.051 V 287.539 H 56.371 V 173.147 Z M 98.711 215.487 V 245.199 H 98.711 V 215.487 H 98.711 Z" style="stroke: rgb(255, 231, 0); fill: rgb(255, 255, 255);" bx:shape="frame 56.371 173.147 84.68 114.392 42.34 42.34 0 0 0 0 1@da45977b"/>
  <path stroke="rgb(255,0,0)" d="M 97.252 210.182 C 98.148 209.934 100.028 210.13 100.905 211.496 C 102.443 213.895 102.353 224.463 102.366 227.275 C 102.371 228.587 102.008 229.117 102.073 229.613 C 102.112 229.909 102.353 229.975 102.366 230.197 C 102.38 230.453 102.059 230.818 102.073 231.074 C 102.086 231.296 102.353 231.435 102.366 231.658 C 102.38 231.914 102.059 232.279 102.073 232.535 C 102.086 232.757 102.353 232.896 102.366 233.119 C 102.38 233.375 102.059 233.74 102.073 233.996 C 102.086 234.218 102.353 234.357 102.366 234.58 C 102.38 234.836 102.059 235.201 102.073 235.457 C 102.086 235.679 102.353 235.818 102.366 236.041 C 102.38 236.297 102.059 236.662 102.073 236.918 C 102.086 237.14 102.326 237.205 102.366 237.502 C 102.431 237.997 102.029 239.27 102.073 239.84 C 102.104 240.231 102.38 240.461 102.366 240.716 C 102.353 240.939 102.073 241.106 102.073 241.301 C 102.073 241.495 102.353 241.662 102.366 241.885 C 102.38 242.141 102.059 242.506 102.073 242.761 C 102.086 242.984 102.385 243.022 102.366 243.346 C 102.326 244.014 101.406 246.422 100.758 246.998 C 100.322 247.387 99.812 247.374 99.297 247.291 C 98.701 247.193 97.908 247.352 97.398 246.268 C 96.069 243.439 95.761 225.133 95.937 222.6 C 95.985 221.908 96.244 221.979 96.229 221.723 C 96.217 221.501 95.985 221.338 95.937 221.139 C 95.892 220.948 95.946 220.944 95.937 220.555 C 95.912 219.435 95.176 214.132 95.645 212.373 C 95.946 211.242 96.475 210.396 97.252 210.182 Z" style="stroke: rgb(129, 151, 57); stroke-width: 0px; fill: rgb(255, 255, 255);"/>
  <text style="fill: rgb(51, 51, 51); font-family: 'Roboto Mono'; font-size: 150px; font-weight: 700; white-space: pre;" x="66.165" y="230.449" dx="-9.861" dy="53.69">Я</text>
</svg>